<?xml version="1.0" encoding="UTF-8"?>
<svg id="Ebene_2" data-name="Ebene 2" xmlns="http://www.w3.org/2000/svg" viewBox="0 0 364.45 392.87">
  <defs>
    <style>
      .cls-1 {
        fill: #fff;
      }
    </style>
  </defs>
  <g id="Ebene_1-2" data-name="Ebene 1">
    <g>
      <path class="cls-1" d="M248.58,344.37l44.8-221.24c.53-4.39.06-8.23-2.54-11-1.87-2-6.69-4.33-9.99-4.32l-52.85.27-23.82,119.61-68.03-.21,35.89-178.82,146.45-.02c15.3,0,28.98,4.41,38.38,16.67,6.94,8.85,9.22,19.6,6.44,31.16l-56.17,296.41-58.54-48.5Z"/>
      <path class="cls-1" d="M204.17,285.18l-11.82,59.18-147.26.08c-14.09,0-26.59-4.24-35.81-14.67-7.54-8.54-10.93-19.17-8.48-30.93L57.29,0l58.49,48.7-45.31,224.19c.13,6.53,5.27,12.21,12.02,12.22l121.68.07Z"/>
    </g>
  </g>
</svg>